<svg width="203" height="64" viewBox="0 0 203 64" fill="none" xmlns="http://www.w3.org/2000/svg">
<g id="Group">
<g id="Group_2">
<g id="Group_3">
<g id="Group_4">
<path id="Vector" d="M54.398 14.2779L30.7685 0.626223C29.3073 -0.208741 27.5121 -0.208741 26.0092 0.626223L2.37965 14.2779C0.91846 15.1129 0 16.6993 0 18.3692V45.6308C0 47.3425 0.91846 48.8872 2.37965 49.7221L26.0092 63.3738C27.4703 64.2087 29.2655 64.2087 30.7685 63.3738L54.398 49.7221C55.8591 48.8872 56.7776 47.3007 56.7776 45.6308V18.3692C56.7776 16.6575 55.8591 15.1129 54.398 14.2779ZM49.2212 45.5473C47.3425 47.593 44.4619 48.0522 42.124 46.9667C41.2055 46.5493 40.1201 46.6327 39.2433 47.1337L36.0287 48.9706C35.152 49.4716 34.5675 50.3483 34.4841 51.3503C34.3588 52.728 33.7743 54.0222 32.7306 55.0659C30.3092 57.529 26.3431 57.4873 23.9635 54.9406C21.8761 52.6862 21.7926 49.0959 23.8382 46.7997C25.6752 44.6706 28.5975 44.1696 30.9772 45.2968C31.8957 45.7143 32.9394 45.6308 33.8161 45.1298L37.0724 43.2511C37.9492 42.7502 38.5336 41.8735 38.6171 40.9132C38.7424 39.5356 39.3268 38.2414 40.3705 37.1977C40.621 36.9472 40.8715 36.7384 41.122 36.5714C41.957 35.987 42.4162 34.985 42.4162 33.9413V29.2237C42.4162 28.681 42.124 28.1383 41.623 27.8878H41.5813C41.122 27.5956 40.5375 27.5956 40.0366 27.8878L19.6634 39.6608C18.7867 40.1618 18.1605 41.0385 18.1187 42.0405C17.9935 43.4181 17.409 44.7958 16.3236 45.8813C13.7769 48.3862 9.56035 48.2192 7.26419 45.3386C5.51077 43.1677 5.51077 39.9948 7.26419 37.8239C7.63993 37.3229 8.09916 36.9472 8.55839 36.6132C9.39335 36.0287 9.81084 35.0685 9.81084 33.6491V30.0587C9.81084 29.0568 9.35161 28.0965 8.55839 27.5121C8.18266 27.2616 7.84867 26.9276 7.51468 26.5936C5.46902 24.3392 5.46902 20.7489 7.51468 18.4945C9.39335 16.407 12.3157 15.9061 14.6536 17.0333C15.5721 17.4507 16.6575 17.3673 17.4925 16.8663L20.7071 15.0294C21.5838 14.5284 22.1683 13.6517 22.2518 12.6497C22.3771 11.272 22.9615 9.97782 24.0052 8.93411C26.4266 6.47097 30.3927 6.51272 32.7724 9.05936C34.8598 11.3138 34.9433 14.9041 32.8976 17.2003C31.0607 19.3294 28.1383 19.8304 25.7587 18.7032C24.8402 18.2857 23.7965 18.3692 22.9198 18.8702L19.6634 20.7489C18.7867 21.2498 18.2022 22.1265 18.1187 23.0868C17.9935 24.4227 17.409 25.7169 16.4071 26.7606C16.1983 26.9693 15.9478 27.1781 15.6973 27.3451C14.8206 27.9713 14.2779 28.9733 14.2779 30.0587V34.7763C14.2779 35.319 14.5701 35.82 15.0711 36.1122H15.1129C15.5721 36.4044 16.1566 36.4044 16.6575 36.1122L37.0307 24.3392C37.9074 23.8382 38.5336 22.9198 38.6171 21.9178C38.7424 20.5401 39.3268 19.2042 40.3705 18.1605C42.7502 15.7391 46.6745 15.7391 49.0542 18.2022C51.2251 20.4566 51.3086 24.1305 49.2629 26.4684C48.9289 26.8441 48.595 27.1363 48.1775 27.4286C47.3425 28.0131 46.925 28.9733 46.925 29.9335C46.925 31.1442 46.925 32.6471 46.925 33.8578C46.925 34.8598 47.3843 35.82 48.1775 36.3627C48.5532 36.6132 48.9289 36.9472 49.2629 37.3229C51.3086 39.7443 51.2668 43.2929 49.2212 45.5473Z" fill="white"/>
</g>
</g>
</g>
<g id="Group_5">
<g id="Group_6">
<path id="Vector_2" d="M51.5605 57.0308V56.6133H53.6897V57.0308H52.8547V59.4939H52.3955V57.0308H51.5605Z" fill="white"/>
<path id="Vector_3" d="M56.6118 56.6133H56.7788V59.4939H56.2778V57.6987L55.4429 58.7842H55.3594L54.5244 57.6987V59.4939H54.0234V56.6133H54.1904L55.3594 58.1162L56.6118 56.6133Z" fill="white"/>
</g>
</g>
<g id="Group_7">
<g id="Group_8">
<path id="Vector_4" d="M74.6448 17.783C74.6448 15.9878 75.8138 15.0276 77.4837 15.0276C79.1536 15.0276 80.3226 15.9878 80.3226 17.783V17.8665C80.3226 18.5762 80.6565 18.9519 81.408 18.9519H82.7857C83.5789 18.9519 83.9964 18.5345 83.9964 17.7412V17.6577C83.9964 13.8586 81.3245 11.5625 77.5254 11.5625C73.7263 11.5625 71.0544 13.8169 71.0544 17.616V17.6577C71.0544 25.8404 80.6148 23.419 80.6148 28.2618V28.3035C80.6148 30.2657 79.2371 31.0589 77.5672 31.0589C75.8972 31.0589 74.5196 30.224 74.5196 28.2618V28.1783C74.5196 27.4686 74.1856 27.0928 73.4341 27.0928H72.0564C71.2632 27.0928 70.8457 27.5103 70.8457 28.3035V28.4288C70.8457 32.2279 73.6428 34.524 77.4419 34.524C81.4498 34.524 84.2469 32.3114 84.2469 28.4705V28.387C84.2469 20.2461 74.6448 22.6258 74.6448 17.783Z" fill="white"/>
<path id="Vector_5" d="M93.9327 17.0315C92.6385 17.0315 91.553 17.449 90.8015 18.3675V12.6897C90.8015 11.9382 90.4258 11.5625 89.6743 11.5625H88.5471C87.7957 11.5625 87.4199 11.9382 87.4199 12.6897V32.9793C87.4199 33.7308 87.7957 34.1065 88.5471 34.1065H89.6743C90.4258 34.1065 90.8015 33.7308 90.8015 32.9793V22.8763C90.8015 20.8306 91.7617 20.2461 92.9307 20.2461C94.0996 20.2461 95.0598 20.8306 95.0598 22.8763V32.9793C95.0598 33.7308 95.4356 34.1065 96.1871 34.1065H97.3143C98.0657 34.1065 98.4415 33.7308 98.4415 32.9793V22.25C98.4832 18.7432 96.521 17.0315 93.9327 17.0315Z" fill="white"/>
<path id="Vector_6" d="M106.834 17.0312C103.619 17.0312 101.573 19.0769 101.573 21.7488C101.573 22.5003 101.949 22.876 102.701 22.876H103.995C104.621 22.876 104.997 22.542 104.997 21.874C104.997 20.9556 105.581 20.2041 106.792 20.2041C107.961 20.2041 108.921 20.7886 108.921 22.8343V24.2537H106.834C103.243 24.2537 101.281 26.1324 101.281 29.3052V29.3887C101.281 32.5616 103.619 34.4403 106.834 34.4403C110.007 34.4403 112.386 32.5616 112.386 28.8042V22.5838C112.428 18.9099 110.007 17.0312 106.834 17.0312ZM108.963 28.6373C108.963 30.6829 108.003 31.2674 106.834 31.2674C105.665 31.2674 104.705 30.6829 104.705 29.0547C104.705 27.4683 105.665 26.8421 106.834 26.8421H108.963V28.6373Z" fill="white"/>
<path id="Vector_7" d="M122.154 17.3655C121.527 17.2402 121.026 17.2402 120.525 17.2402C117.353 17.2402 115.516 18.5762 115.516 22.2083V33.0211C115.516 33.7725 115.891 34.1483 116.643 34.1483H117.77C118.522 34.1483 118.897 33.7725 118.897 33.0211V22.4588C118.897 20.9558 119.482 20.4549 120.943 20.4549C121.277 20.4549 121.527 20.4966 121.945 20.5384C122.696 20.6636 123.072 20.2044 123.072 19.4111V18.4927C123.114 17.7412 122.738 17.4907 122.154 17.3655Z" fill="white"/>
<path id="Vector_8" d="M130.213 17.0312C127.04 17.0312 124.66 18.9099 124.66 22.6673V28.8878C124.66 32.6451 127.04 34.5238 130.213 34.5238C133.469 34.5238 135.598 32.5616 135.598 29.681C135.598 28.9295 135.222 28.5538 134.471 28.5538H133.177C132.551 28.5538 132.175 28.8877 132.175 29.5557C132.175 30.6412 131.423 31.3509 130.213 31.3509C129.044 31.3509 128.084 30.7664 128.084 28.7207V26.5916H134.638C135.389 26.5916 135.765 26.2159 135.765 25.4644V22.7508C135.765 18.9099 133.386 17.0312 130.213 17.0312ZM132.342 23.9615H128.084V22.9177C128.084 20.8721 129.044 20.2876 130.213 20.2876C131.382 20.2876 132.342 20.8721 132.342 22.9177V23.9615Z" fill="white"/>
<path id="Vector_9" d="M148.54 11.5625H147.412C146.661 11.5625 146.285 11.9382 146.285 12.6897V18.3675C145.534 17.449 144.407 17.0315 143.154 17.0315C140.566 17.0315 138.604 18.7014 138.604 22.2918V28.888C138.604 32.6871 140.983 34.524 144.156 34.524C147.329 34.524 149.709 32.7288 149.709 28.888V12.7315C149.667 11.9382 149.291 11.5625 148.54 11.5625ZM146.243 28.6375C146.243 30.6832 145.283 31.2677 144.114 31.2677C142.945 31.2677 141.985 30.6832 141.985 28.6375V22.8763C141.985 20.8306 142.945 20.2461 144.114 20.2461C145.283 20.2461 146.243 20.8306 146.243 22.8763V28.6375Z" fill="white"/>
<path id="Vector_10" d="M164.236 11.8965H153.131C152.337 11.8965 151.92 12.314 151.92 13.1072V14.1509C151.92 14.9441 152.337 15.3616 153.131 15.3616H156.846V32.9376C156.846 33.7308 157.264 34.1483 158.057 34.1483H159.309C160.103 34.1483 160.52 33.7308 160.52 32.9376V15.3616H164.236C165.029 15.3616 165.446 14.9441 165.446 14.1509V13.1072C165.446 12.314 165.029 11.8965 164.236 11.8965Z" fill="white"/>
<path id="Vector_11" d="M171.834 17.0312C168.661 17.0312 166.281 18.9099 166.281 22.6673V28.8878C166.281 32.6451 168.661 34.5238 171.834 34.5238C175.09 34.5238 177.219 32.5616 177.219 29.681C177.219 28.9295 176.844 28.5538 176.092 28.5538H174.798C174.172 28.5538 173.796 28.8877 173.796 29.5557C173.796 30.6412 173.044 31.3509 171.834 31.3509C170.665 31.3509 169.705 30.7664 169.705 28.7207V26.5916H176.259C177.011 26.5916 177.386 26.2159 177.386 25.4644V22.7508C177.386 18.9099 175.007 17.0312 171.834 17.0312ZM173.963 23.9615H169.705V22.9177C169.705 20.8721 170.665 20.2876 171.834 20.2876C173.003 20.2876 173.963 20.8721 173.963 22.9177V23.9615Z" fill="white"/>
<path id="Vector_12" d="M184.443 20.2451C185.654 20.2451 186.405 21.0801 186.405 22.3325C186.405 22.9588 186.739 23.3345 187.407 23.3345H188.701C189.453 23.3345 189.829 22.9588 189.829 22.2073C189.829 19.0762 187.574 17.0723 184.443 17.0723C181.27 17.0723 178.891 18.9509 178.891 22.7083V28.9288C178.891 32.6861 181.27 34.5648 184.443 34.5648C187.574 34.5648 189.829 32.5609 189.829 29.4297C189.829 28.6783 189.453 28.3025 188.701 28.3025H187.407C186.781 28.3025 186.405 28.6365 186.405 29.3045C186.405 30.5569 185.654 31.3919 184.443 31.3919C183.274 31.3919 182.314 30.8074 182.314 28.7618V23.0005C182.314 20.8714 183.274 20.2451 184.443 20.2451Z" fill="white"/>
<path id="Vector_13" d="M198.136 17.0315C196.842 17.0315 195.756 17.449 195.005 18.3675V12.6897C195.005 11.9382 194.629 11.5625 193.877 11.5625H192.75C191.999 11.5625 191.623 11.9382 191.623 12.6897V32.9793C191.623 33.7308 191.999 34.1065 192.75 34.1065H193.877C194.629 34.1065 195.005 33.7308 195.005 32.9793V22.8763C195.005 20.8306 195.965 20.2461 197.134 20.2461C198.303 20.2461 199.263 20.8306 199.263 22.8763V32.9793C199.263 33.7308 199.639 34.1065 200.39 34.1065H201.517C202.269 34.1065 202.645 33.7308 202.645 32.9793V22.25C202.686 18.7432 200.766 17.0315 198.136 17.0315Z" fill="white"/>
</g>
<g id="Group_9">
<path id="Vector_14" d="M73.5178 40.3691H72.0566V41.8303H73.5178V40.3691Z" fill="white"/>
<path id="Vector_15" d="M75.6897 40.3691H74.2285V41.8303H75.6897V40.3691Z" fill="white"/>
<path id="Vector_16" d="M91.5536 44.2517C91.3031 44.0012 90.9691 43.7925 90.5516 43.6255C90.1341 43.5003 89.6331 43.4168 89.0487 43.4168H85.1243L88.1302 40.3691H86.3768L83.3292 43.4168V44.711H89.0904C89.5914 44.711 89.9671 44.8779 90.3011 45.1702C90.5933 45.4624 90.7603 45.9634 90.7603 46.6314V48.1343H77.9436H77.6096C77.2757 48.1343 77.0252 48.0508 76.8582 47.8421C76.6912 47.6333 76.5659 47.2993 76.5659 46.7984V43.4168H73.6853C73.1843 43.4168 72.7669 43.5003 72.4329 43.6255C72.0571 43.7925 71.7649 43.9595 71.5144 44.2517C71.2639 44.5022 71.0969 44.8362 70.9717 45.1702C70.8464 45.5042 70.8047 45.8799 70.8047 46.2974C70.8047 46.7566 70.8882 47.1741 71.0552 47.5081C71.2222 47.8421 71.4727 48.1343 71.7231 48.343C72.0154 48.5518 72.3076 48.7188 72.6416 48.8023C72.9756 48.8858 73.3096 48.9693 73.6436 48.9693C74.061 48.9693 74.4368 48.8858 74.7708 48.677C75.1048 48.4683 75.3552 48.2178 75.5222 47.9673C75.6057 48.176 75.6892 48.343 75.8145 48.5518C75.9397 48.7188 76.065 48.8858 76.232 49.011C76.399 49.1363 76.6077 49.2615 76.8164 49.345C77.0252 49.4285 77.2757 49.4702 77.5679 49.4702H77.9019H92.2215V46.6731C92.2215 46.1721 92.1798 45.7129 92.0545 45.2954C91.971 44.8779 91.804 44.5022 91.5536 44.2517ZM75.1048 46.2556C75.1048 46.7566 74.9795 47.1323 74.6873 47.3828C74.395 47.6333 74.061 47.7586 73.6436 47.7586C73.2678 47.7586 72.9338 47.6333 72.6834 47.4246C72.4329 47.2158 72.3076 46.8401 72.3076 46.3391C72.3076 45.8382 72.4329 45.4207 72.7251 45.1284C73.0173 44.8362 73.3513 44.711 73.7271 44.711H75.1465V46.2556H75.1048Z" fill="white"/>
<path id="Vector_17" d="M102.951 40.3691H101.49V41.8303H102.951V40.3691Z" fill="white"/>
<path id="Vector_18" d="M105.08 40.3691H103.619V41.8303H105.08V40.3691Z" fill="white"/>
<path id="Vector_19" d="M115.643 40.3691H114.182V41.8303H115.643V40.3691Z" fill="white"/>
<path id="Vector_20" d="M113.471 40.3691H112.01V41.8303H113.471V40.3691Z" fill="white"/>
<path id="Vector_21" d="M114.974 38.4492H113.513L113.096 39.9104H114.557L114.974 38.4492Z" fill="white"/>
<path id="Vector_22" d="M135.138 48.1341H131.465H131.047C130.88 48.1341 130.755 48.0923 130.588 48.0506C130.463 48.0088 130.337 47.9253 130.212 47.8418C130.087 47.7166 130.003 47.5913 129.962 47.4243C129.878 47.2574 129.878 47.0069 129.878 46.7146C129.878 46.1719 129.795 45.7544 129.628 45.3369C129.461 44.9612 129.252 44.6272 128.96 44.3767C128.667 44.1262 128.333 43.9175 127.958 43.7922C127.582 43.667 127.164 43.5835 126.705 43.5835C126.246 43.5835 125.829 43.667 125.453 43.7922C125.077 43.9175 124.743 44.1262 124.451 44.3767C124.159 44.6272 123.95 44.9612 123.783 45.3369C123.616 45.7127 123.532 46.1719 123.532 46.7146C123.532 47.0069 123.491 47.2156 123.449 47.4243C123.365 47.5913 123.282 47.7583 123.198 47.8418C123.073 47.9671 122.948 48.0088 122.823 48.0506C122.697 48.0923 122.53 48.1341 122.363 48.1341H120.193H119.358C119.274 48.1341 119.149 48.1341 119.065 48.0923C118.982 48.0506 118.857 48.0088 118.773 47.9253C118.69 47.8418 118.606 47.7583 118.564 47.6331C118.523 47.5078 118.481 47.3408 118.481 47.1739V44.0427H117.02V47.2156C117.02 47.5913 116.894 47.8418 116.686 48.0088C116.435 48.1341 116.185 48.2176 115.851 48.2176C115.475 48.2176 115.183 48.1341 114.932 48.0088C114.682 47.8836 114.598 47.5913 114.598 47.2156V44.335H113.137V47.2156C113.137 47.4243 113.095 47.5496 113.054 47.7166C112.97 47.8418 112.928 47.9253 112.803 48.0088C112.72 48.0923 112.594 48.1341 112.469 48.1758C112.344 48.2176 112.177 48.2176 112.052 48.2176C111.885 48.2176 111.759 48.2176 111.592 48.1758C111.467 48.1341 111.342 48.0923 111.217 48.0088C111.091 47.9253 111.008 47.8418 110.966 47.7166C110.883 47.5913 110.883 47.4243 110.883 47.2156V44.5855H109.421V47.1739C109.421 47.3826 109.38 47.5078 109.338 47.6748C109.296 47.8418 109.213 47.8836 109.129 47.9671C109.046 48.0506 108.962 48.0923 108.837 48.1341C108.753 48.1758 108.628 48.1758 108.545 48.1758H105.956H105.414C105.288 48.1758 105.121 48.1341 104.954 48.0923C104.787 48.0088 104.662 47.9253 104.537 47.8001C104.412 47.6748 104.286 47.5078 104.203 47.3408C104.119 47.1739 104.078 46.9651 104.078 46.7564V44.0845H102.617V47.1739C102.617 47.3826 102.575 47.5078 102.533 47.6748C102.491 47.8418 102.408 47.8836 102.324 47.9671C102.241 48.0506 102.157 48.0923 102.032 48.1341C101.949 48.1758 101.823 48.1758 101.74 48.1758H98.1494H97.6902C97.5232 48.1758 97.3145 48.1758 97.1475 48.1341C96.9805 48.0923 96.8552 48.0506 96.73 47.9671C96.6048 47.8836 96.5213 47.7583 96.4378 47.6331C96.3543 47.5078 96.3125 47.2991 96.3125 47.0904V44.0845H94.8513V49.5118C94.8513 49.8875 94.8096 50.1797 94.7678 50.4302C94.7261 50.639 94.6843 50.8477 94.6008 50.9729C94.5174 51.0982 94.4338 51.1817 94.3086 51.2234C94.1834 51.2652 94.0581 51.3069 93.9329 51.3069C93.5571 51.3069 93.2649 51.2234 92.9727 51.0982V52.3089C93.0562 52.3506 93.1397 52.3924 93.2649 52.4341C93.3484 52.4759 93.4736 52.4759 93.5989 52.5176C93.7241 52.5594 93.8911 52.5594 94.0581 52.5594C94.8513 52.5594 95.3941 52.3089 95.728 51.8079C96.062 51.3069 96.229 50.5555 96.229 49.5952V48.7603H96.2708C96.3125 48.8855 96.396 49.0108 96.4795 49.0943C96.563 49.1778 96.6883 49.2613 96.8135 49.3448C96.9387 49.4283 97.064 49.47 97.1892 49.5118C97.3145 49.5535 97.4397 49.5535 97.565 49.5535H98.0242H101.615C101.99 49.5535 102.366 49.47 102.742 49.2613C103.117 49.0525 103.41 48.7603 103.66 48.3846C103.702 48.5098 103.785 48.6768 103.911 48.802C104.036 48.9273 104.161 49.0525 104.286 49.1778C104.412 49.303 104.579 49.3865 104.746 49.47C104.913 49.5535 105.08 49.5952 105.288 49.5952H105.831H109.087C109.714 49.5952 110.173 49.3865 110.423 48.9273H110.465C110.59 49.1778 110.799 49.3448 111.133 49.47C111.467 49.5953 111.843 49.637 112.26 49.637C112.761 49.637 113.137 49.5953 113.471 49.47C113.763 49.3448 114.014 49.1778 114.181 48.9273H114.223C114.306 49.1778 114.515 49.3865 114.849 49.47C115.183 49.5953 115.6 49.637 116.101 49.637C116.602 49.637 117.02 49.5535 117.354 49.4283C117.646 49.303 117.896 49.0943 118.063 48.8438H118.105C118.147 48.969 118.23 49.0943 118.314 49.1778C118.397 49.2613 118.523 49.3448 118.606 49.3865C118.731 49.4283 118.815 49.47 118.94 49.5118C119.065 49.5535 119.149 49.5535 119.274 49.5535H120.067H122.238C122.572 49.5535 122.906 49.47 123.157 49.303C123.449 49.136 123.658 48.8855 123.783 48.5098C124.033 49.0108 124.409 49.3448 124.868 49.5952C125.328 49.8457 125.912 49.9292 126.538 49.9292C127.164 49.9292 127.749 49.804 128.208 49.5952C128.709 49.3448 129.043 49.0108 129.294 48.5098C129.419 48.8438 129.628 49.136 129.92 49.303C130.212 49.47 130.504 49.5535 130.838 49.5535H131.256H136.391V40.4941H134.93V48.1341H135.138ZM127.916 48.0506C127.624 48.3846 127.206 48.5515 126.663 48.5515C126.121 48.5515 125.703 48.3846 125.411 48.0506C125.119 47.7166 124.994 47.2573 124.994 46.7146C124.994 46.1719 125.119 45.7127 125.411 45.3787C125.703 45.0447 126.121 44.8777 126.663 44.8777C127.206 44.8777 127.624 45.0447 127.916 45.3787C128.208 45.7127 128.333 46.1719 128.333 46.7146C128.333 47.2573 128.208 47.7166 127.916 48.0506Z" fill="white"/>
<path id="Vector_23" d="M140.315 40.3691H138.854V49.4285H140.315V40.3691Z" fill="white"/>
<path id="Vector_24" d="M149.625 41.498H148.164V42.9592H149.625V41.498Z" fill="white"/>
<path id="Vector_25" d="M151.797 41.498H150.336V42.9592H151.797V41.498Z" fill="white"/>
<path id="Vector_26" d="M154.134 48.1343H147.203C146.201 48.1343 145.7 47.5916 145.7 46.5061V44.043H144.406V46.5061C144.406 47.0488 144.49 47.5081 144.657 47.8838C144.824 48.2595 145.032 48.5518 145.283 48.8023C145.533 49.0528 145.826 49.2197 146.201 49.3032C146.535 49.3867 146.869 49.4702 147.245 49.4702H155.595V44.0847H154.134V48.1343Z" fill="white"/>
<path id="Vector_27" d="M171.627 50.6387H170.166V52.0999H171.627V50.6387Z" fill="white"/>
<path id="Vector_28" d="M169.455 50.6387H167.994V52.0999H169.455V50.6387Z" fill="white"/>
<path id="Vector_29" d="M176.469 40.3691H175.008V41.8303H176.469V40.3691Z" fill="white"/>
<path id="Vector_30" d="M183.608 40.3691H182.146V41.8303H183.608V40.3691Z" fill="white"/>
<path id="Vector_31" d="M185.737 40.3691H184.275V41.8303H185.737V40.3691Z" fill="white"/>
<path id="Vector_32" d="M193.043 40.3691H191.582V41.8303H193.043V40.3691Z" fill="white"/>
<path id="Vector_33" d="M190.914 40.3691H189.453V41.8303H190.914V40.3691Z" fill="white"/>
<path id="Vector_34" d="M197.511 48.1343H193.838H193.295C193.17 48.1343 193.003 48.0926 192.836 48.0508C192.669 47.9673 192.543 47.8838 192.418 47.7586C192.293 47.6333 192.168 47.4663 192.084 47.2993C192.001 47.1323 191.959 46.9236 191.959 46.7149V44.043H190.498V47.1323C190.498 47.3411 190.456 47.4663 190.414 47.6333C190.372 47.8003 190.289 47.8421 190.205 47.9256C190.122 48.0091 190.038 48.0508 189.913 48.0926C189.83 48.1343 189.704 48.1343 189.621 48.1343H187.826H186.239V48.0926C186.323 48.0508 186.406 47.9673 186.49 47.8421C186.573 47.7168 186.657 47.5916 186.74 47.4246C186.824 47.2576 186.907 47.0906 186.949 46.8819C186.991 46.6731 187.033 46.5061 187.033 46.2974C187.033 45.7964 186.949 45.3372 186.782 44.9614C186.615 44.5857 186.406 44.2517 186.114 44.0012C185.822 43.7507 185.488 43.542 185.112 43.4168C184.736 43.2915 184.319 43.208 183.86 43.208C183.401 43.208 182.983 43.2915 182.607 43.4168C182.232 43.542 181.898 43.7507 181.605 44.0012C181.313 44.2517 181.104 44.5857 180.937 44.9614C180.77 45.3372 180.687 45.7964 180.687 46.2974C180.687 46.5061 180.729 46.6731 180.77 46.8819C180.812 47.0906 180.896 47.2576 180.979 47.4246C181.063 47.5916 181.146 47.7168 181.23 47.8421C181.313 47.9673 181.397 48.0508 181.48 48.0926V48.1343H178.224H177.681C177.556 48.1343 177.389 48.0926 177.222 48.0508C177.055 47.9673 176.93 47.8838 176.804 47.7586C176.679 47.6333 176.554 47.4663 176.47 47.2993C176.387 47.1323 176.345 46.9236 176.345 46.7149V44.043H174.884V47.1323C174.884 47.3411 174.842 47.4663 174.8 47.6333C174.759 47.7586 174.675 47.8421 174.592 47.9256C174.508 48.0091 174.425 48.0508 174.299 48.0926C174.216 48.1343 174.091 48.1343 174.007 48.1343H172.17H171.628C171.502 48.1343 171.335 48.0926 171.168 48.0508C171.001 47.9673 170.876 47.8838 170.751 47.7586C170.626 47.6333 170.5 47.4663 170.417 47.2993C170.333 47.1323 170.292 46.9236 170.292 46.7149V44.043H168.83V47.1323C168.83 47.3411 168.789 47.4663 168.747 47.6333C168.705 47.8003 168.622 47.8421 168.538 47.9256C168.455 48.0091 168.371 48.0508 168.246 48.0926C168.121 48.1343 168.037 48.1343 167.954 48.1343H159.938H158.811V40.3691H157.35V49.4285H159.938H167.954C168.329 49.4285 168.705 49.345 169.081 49.1363C169.457 48.9275 169.749 48.6353 169.999 48.2596C170.041 48.3848 170.125 48.5518 170.25 48.677C170.375 48.8023 170.5 48.9275 170.626 49.0528C170.751 49.178 170.918 49.2615 171.085 49.345C171.252 49.4285 171.419 49.4702 171.628 49.4702H172.17H174.007C174.383 49.4702 174.759 49.3867 175.134 49.178C175.51 48.9693 175.802 48.677 176.053 48.3013C176.095 48.4265 176.178 48.5935 176.303 48.7188C176.429 48.844 176.554 48.9693 176.679 49.0945C176.804 49.2198 176.971 49.3032 177.138 49.3867C177.305 49.4702 177.472 49.512 177.681 49.512H178.224H187.826H189.663C190.038 49.512 190.414 49.4285 190.79 49.2198C191.166 49.011 191.458 48.7188 191.708 48.343C191.75 48.4683 191.834 48.6353 191.959 48.7605C192.084 48.8858 192.209 49.011 192.335 49.1363C192.46 49.2615 192.627 49.345 192.794 49.4285C192.961 49.512 193.128 49.5537 193.337 49.5537H193.879H199.014V40.4944H197.553V48.1343H197.511ZM185.112 47.6751C184.82 48.0091 184.402 48.176 183.86 48.176C183.317 48.176 182.9 48.0091 182.607 47.6751C182.315 47.3411 182.19 46.8819 182.19 46.3391C182.19 45.7964 182.315 45.3372 182.607 45.0032C182.9 44.6692 183.317 44.5022 183.86 44.5022C184.402 44.5022 184.82 44.6692 185.112 45.0032C185.404 45.3372 185.53 45.7964 185.53 46.3391C185.571 46.8819 185.404 47.3411 185.112 47.6751Z" fill="white"/>
<path id="Vector_35" d="M202.729 40.3691H201.268V49.4285H202.729V40.3691Z" fill="white"/>
</g>
</g>
</g>
</svg>
